<svg xmlns="http://www.w3.org/2000/svg" width="34" height="39.077" viewBox="0 0 34 39.077"><defs><style>.a{opacity:0.81;}.b{stroke:#000;}</style></defs><g class="a" transform="translate(-2.5 -1020.86)"><path class="b" d="M17.589,1a.635.635,0,0,0-.441,1.091l1.527,1.527a16.494,16.494,0,0,0-5.6,31.661.635.635,0,1,0,.5-1.168A15.224,15.224,0,0,1,18.526,4.89L17.147,6.268a.635.635,0,1,0,.9.9l2.538-2.539a.635.635,0,0,0,0-.9L18.045,1.191A.635.635,0,0,0,17.589,1Zm8.024,3.82a.635.635,0,0,0-.186,1.222,15.22,15.22,0,0,1-5.02,29.217l1.445-1.445a.635.635,0,1,0-.9-.9l-2.538,2.538a.635.635,0,0,0,0,.9l2.538,2.538a.635.635,0,1,0,.9-.9L20.39,36.529A16.494,16.494,0,0,0,25.923,4.87a.757.757,0,0,0-.31-.052ZM19.5,9.92A10.154,10.154,0,1,0,29.654,20.074,10.163,10.163,0,0,0,19.5,9.92Zm0,1.269a8.885,8.885,0,1,1-8.885,8.885A8.875,8.875,0,0,1,19.5,11.189Zm-.449,2.5v1.47a3.824,3.824,0,0,0-1.083.288,2.773,2.773,0,0,0-.826.548,2.358,2.358,0,0,0-.521.788,2.751,2.751,0,0,0-.176,1,2.553,2.553,0,0,0,.2,1.049,2.458,2.458,0,0,0,.6.8,4.039,4.039,0,0,0,.952.607,8.687,8.687,0,0,0,1.267.449,6.5,6.5,0,0,1,.9.362,2.406,2.406,0,0,1,.607.407,1.361,1.361,0,0,1,.342.473,1.434,1.434,0,0,1,.107.555,1.58,1.58,0,0,1-.131.655,1.367,1.367,0,0,1-.389.493,1.8,1.8,0,0,1-.615.315,2.915,2.915,0,0,1-.828.107,2.639,2.639,0,0,1-.669-.087,1.593,1.593,0,0,1-.607-.307,1.569,1.569,0,0,1-.439-.595,2.316,2.316,0,0,1-.166-.942H16.024a3.212,3.212,0,0,0,.238,1.3,2.577,2.577,0,0,0,.632.89,2.864,2.864,0,0,0,.925.54,4.593,4.593,0,0,0,1.073.248v1.282h1.225V25.1a4.661,4.661,0,0,0,1.187-.268,2.806,2.806,0,0,0,.9-.535,2.329,2.329,0,0,0,.573-.788,2.541,2.541,0,0,0,.2-1.034,2.592,2.592,0,0,0-.193-1.036,2.261,2.261,0,0,0-.573-.788,3.653,3.653,0,0,0-.932-.6A8.578,8.578,0,0,0,20,19.59a7.4,7.4,0,0,1-.949-.367,2.892,2.892,0,0,1-.617-.407,1.306,1.306,0,0,1-.342-.468,1.654,1.654,0,0,1-.1-.58,1.98,1.98,0,0,1,.1-.635,1.316,1.316,0,0,1,.307-.488,1.448,1.448,0,0,1,.521-.32,2.1,2.1,0,0,1,.729-.114,1.632,1.632,0,0,1,.721.154,1.461,1.461,0,0,1,.528.426,1.9,1.9,0,0,1,.317.649,2.792,2.792,0,0,1,.114.821h1.542a3.152,3.152,0,0,0-.679-2.137,2.889,2.889,0,0,0-1.9-.954V13.693Z" transform="translate(0 1020.362)"/></g></svg>