<svg xmlns="http://www.w3.org/2000/svg" width="42.015" height="37.363" viewBox="0 0 42.015 37.363"><defs><style>.a{stroke:#000;fill-rule:evenodd;opacity:0.81;}</style></defs><path class="a" d="M147.885,280.093A3.073,3.073,0,0,0,145,282.149H138.84a.348.348,0,0,0-.1.01l-3.237-5.624a.589.589,0,0,0,.072-.093l3.1-5.336a2.66,2.66,0,0,0,.574.061,3.086,3.086,0,0,0,1.547-5.747,3.042,3.042,0,0,0-1.547-.421,3.087,3.087,0,0,0-2.346,5.079l-3.1,5.336a.116.116,0,0,0-.031.082h-6.6a.268.268,0,0,0-.031-.082l-3.094-5.336a3.26,3.26,0,0,0,.625-1.213A3.083,3.083,0,0,0,121.691,265a3.042,3.042,0,0,0-1.547.421,3.085,3.085,0,0,0,1.557,5.747,2.567,2.567,0,0,0,.563-.061l3.1,5.336a.266.266,0,0,0,.082.1l-3.237,5.614a.384.384,0,0,0-.113-.01h-6.147a3.084,3.084,0,1,0,0,2.056H122.1a.385.385,0,0,0,.113-.01l3.237,5.613a.256.256,0,0,0-.082.1l-3.1,5.346a2.563,2.563,0,0,0-.563-.062,3.086,3.086,0,0,0-1.557,5.748,3.042,3.042,0,0,0,1.547.421,3.087,3.087,0,0,0,2.981-3.876,3.022,3.022,0,0,0-.635-1.2l3.1-5.336a.266.266,0,0,0,.031-.082h6.6a.266.266,0,0,0,.031.082l3.1,5.336a2.881,2.881,0,0,0-.625,1.2,3.027,3.027,0,0,0,.318,2.344,3.073,3.073,0,0,0,2.653,1.531,3.042,3.042,0,0,0,1.547-.421,3.086,3.086,0,0,0-1.547-5.748,2.66,2.66,0,0,0-.574.062l-3.1-5.346a.566.566,0,0,0-.072-.093l3.237-5.624a.349.349,0,0,0,.1.01H145a3.073,3.073,0,1,0,2.889-4.112Zm-9.527-12.522a1.025,1.025,0,0,1,1.772,1.03,1.048,1.048,0,0,1-1.4.37,1.035,1.035,0,0,1-.369-1.4Zm-16.145,1.4a1.048,1.048,0,0,1-1.4-.37,1.029,1.029,0,1,1,1.4.37Zm-9.158,15.239a1.028,1.028,0,1,1,1.024-1.028,1.028,1.028,0,0,1-1.024,1.028Zm9.527,14.588a1.048,1.048,0,0,1-1.4.37,1.029,1.029,0,0,1-.369-1.409,1.04,1.04,0,0,1,.891-.5,1.018,1.018,0,0,1,.881,1.539Zm16.145-1.408a1.043,1.043,0,0,1,1.4.37,1.029,1.029,0,0,1-.369,1.409.985.985,0,0,1-.512.144,1.024,1.024,0,0,1-.891-.512,1.046,1.046,0,0,1,.369-1.413Zm-5.009-8.574h-6.485L124,283.179l3.237-5.624h6.485l3.237,5.624Zm14.168-4.606a1.028,1.028,0,1,1,1.024-1.028A1.028,1.028,0,0,1,147.885,284.208Z" transform="translate(-109.462 -264.5)"/></svg>