<svg xmlns="http://www.w3.org/2000/svg" width="32.991" height="33.014" viewBox="0 0 32.991 33.014"><defs><style>.a{opacity:0.81;}</style></defs><path class="a" d="M33.342,34.993a1.386,1.386,0,0,1-.445,0l-8.924-2.474a17.238,17.238,0,0,1-5.477.825A16.116,16.116,0,0,1,2,17.673,16.116,16.116,0,0,1,18.5,2a16.116,16.116,0,0,1,16.5,15.671A14.994,14.994,0,0,1,32.319,26.2l2.557,6.6a1.63,1.63,0,0,1-1.534,2.194Zm-9.435-5.922a2.046,2.046,0,0,1,.445,0L30.6,30.82,28.954,26.5a1.65,1.65,0,0,1,.231-1.65,11.761,11.761,0,0,0,2.507-7.176A12.817,12.817,0,0,0,18.5,5.3,12.817,12.817,0,0,0,5.3,17.673,12.817,12.817,0,0,0,18.5,30.044a14,14,0,0,0,4.85-.874,1.65,1.65,0,0,1,.561-.1Z" transform="translate(-2 -1.997)"/></svg>