<svg xmlns="http://www.w3.org/2000/svg" width="32.277" height="37.797" viewBox="0 0 32.277 37.797"><defs><style>.a{stroke:#000;opacity:0.81;}</style></defs><path class="a" d="M37.468,14.772,27.505,4.81A2.76,2.76,0,0,0,25.555,4H9.76A2.76,2.76,0,0,0,7,6.76v4.6a.92.92,0,0,0,1.84,0V6.76a.92.92,0,0,1,.92-.92H25.4v8.279a2.76,2.76,0,0,0,2.76,2.76h8.279V38.037a.92.92,0,0,1-.92.92H9.76a.92.92,0,0,1-.92-.92v-23a.92.92,0,0,0-1.84,0v23A2.76,2.76,0,0,0,9.76,40.8H35.518a2.76,2.76,0,0,0,2.76-2.76V16.723A2.76,2.76,0,0,0,37.468,14.772Zm-10.23-.653V7.137l7.9,7.9H28.158A.92.92,0,0,1,27.238,14.119Z" transform="translate(-6.5 -3.5)"/></svg>