<svg xmlns="http://www.w3.org/2000/svg"  fill="white" width="33" height="33" viewBox="0 0 33 33"><defs><style>.a{opacity:0.81;}</style></defs><path class="a" d="M14.5,7A1.5,1.5,0,1,0,16,8.5,1.5,1.5,0,0,0,14.5,7Zm-6,0A1.5,1.5,0,1,0,10,8.5,1.5,1.5,0,0,0,8.5,7Zm12,0A1.5,1.5,0,1,0,22,8.5,1.5,1.5,0,0,0,20.5,7Zm9-6H5.5A4.5,4.5,0,0,0,1,5.5v24A4.5,4.5,0,0,0,5.5,34h24A4.5,4.5,0,0,0,34,29.5V5.5A4.5,4.5,0,0,0,29.5,1ZM31,29.5A1.5,1.5,0,0,1,29.5,31H5.5A1.5,1.5,0,0,1,4,29.5V16H31ZM31,13H4V5.5A1.5,1.5,0,0,1,5.5,4h24A1.5,1.5,0,0,1,31,5.5Z" transform="translate(-1 -1)"/></svg>