<svg xmlns="http://www.w3.org/2000/svg"  fill="white" width="32.333" height="32.333" viewBox="0 0 32.333 32.333"><defs><style>.a{opacity:0.81;}</style></defs><g class="a" transform="translate(-1 -1)"><path d="M30.856,19.778H26.544V12.233a1.077,1.077,0,0,0-1.078-1.078H21.156V10.078a1.078,1.078,0,1,0-2.156,0v2.156a1.077,1.077,0,0,0,1.078,1.078h4.311v7.544a1.077,1.077,0,0,0,1.078,1.078h4.311v8.622H21.156V29.478a1.078,1.078,0,1,0-2.156,0v2.156a1.077,1.077,0,0,0,1.078,1.078H30.856a1.077,1.077,0,0,0,1.078-1.078V20.856A1.077,1.077,0,0,0,30.856,19.778Z" transform="translate(1.4 0.622)"/><path d="M22.556,25.467V21.156h1.078a1.078,1.078,0,0,0,0-2.156H21.478A1.077,1.077,0,0,0,20.4,20.078v4.311H12.856a1.077,1.077,0,0,0-1.078,1.078v4.311H3.156V21.156H4.233a1.078,1.078,0,1,0,0-2.156H2.078A1.077,1.077,0,0,0,1,20.078V30.856a1.077,1.077,0,0,0,1.078,1.078H12.856a1.077,1.077,0,0,0,1.078-1.078V26.544h7.544A1.077,1.077,0,0,0,22.556,25.467Z" transform="translate(0 1.4)"/><path d="M2.078,13.933H6.389v7.544a1.077,1.077,0,0,0,1.078,1.078h4.311v1.078a1.078,1.078,0,0,0,2.156,0V21.478A1.077,1.077,0,0,0,12.856,20.4H8.544V12.856a1.077,1.077,0,0,0-1.078-1.078H3.156V3.156h8.622V4.233a1.078,1.078,0,1,0,2.156,0V2.078A1.077,1.077,0,0,0,12.856,1H2.078A1.077,1.077,0,0,0,1,2.078V12.856A1.077,1.077,0,0,0,2.078,13.933Z"/><path d="M31.633,1H20.856a1.077,1.077,0,0,0-1.078,1.078V6.389H12.233a1.077,1.077,0,0,0-1.078,1.078v4.311H10.078a1.078,1.078,0,1,0,0,2.156h2.156a1.077,1.077,0,0,0,1.078-1.078V8.544h7.544a1.077,1.077,0,0,0,1.078-1.078V3.156h8.622v8.622H29.478a1.078,1.078,0,1,0,0,2.156h2.156a1.077,1.077,0,0,0,1.078-1.078V2.078A1.077,1.077,0,0,0,31.633,1Z" transform="translate(0.622)"/><path d="M5.078,4A1.077,1.077,0,0,0,4,5.078V9.389a1.077,1.077,0,0,0,1.078,1.078H9.389a1.077,1.077,0,0,0,1.078-1.078V5.078A1.077,1.077,0,0,0,9.389,4ZM8.311,8.311H6.156V6.156H8.311Zm20.478,2.156a1.077,1.077,0,0,0,1.078-1.078V5.078A1.077,1.077,0,0,0,28.789,4H24.478A1.077,1.077,0,0,0,23.4,5.078V9.389a1.077,1.077,0,0,0,1.078,1.078ZM25.556,6.156h2.156V8.311H25.556ZM5.078,23.4A1.077,1.077,0,0,0,4,24.478v4.311a1.077,1.077,0,0,0,1.078,1.078H9.389a1.077,1.077,0,0,0,1.078-1.078V24.478A1.077,1.077,0,0,0,9.389,23.4Zm3.233,4.311H6.156V25.556H8.311ZM23.4,24.478v4.311a1.077,1.077,0,0,0,1.078,1.078h4.311a1.077,1.077,0,0,0,1.078-1.078V24.478A1.077,1.077,0,0,0,28.789,23.4H24.478A1.077,1.077,0,0,0,23.4,24.478Zm2.156,1.078h2.156v2.156H25.556Z" transform="translate(0.233 0.233)"/></g></svg>