<svg xmlns="http://www.w3.org/2000/svg" width="26.559" height="26.504" viewBox="0 0 26.559 26.504"><defs><style>.a{fill:#fff;}</style></defs><path class="a" d="M13.255,26.5a13.107,13.107,0,0,1-9.387-3.865,13.264,13.264,0,0,1,0-18.774A13.107,13.107,0,0,1,13.255,0a13.107,13.107,0,0,1,9.387,3.865,13.264,13.264,0,0,1,0,18.774A13.107,13.107,0,0,1,13.255,26.5Zm0-24.3a10.93,10.93,0,0,0-7.841,3.2,11.131,11.131,0,0,0,0,15.682,10.93,10.93,0,0,0,7.841,3.2A10.988,10.988,0,0,0,21.1,5.522,10.6,10.6,0,0,0,13.255,2.209Z" transform="translate(0.025)"/><path class="a" d="M12.1,19.252a1.043,1.043,0,0,1-1.1-1.1V7.1A1.043,1.043,0,0,1,12.1,6a1.043,1.043,0,0,1,1.1,1.1V18.148A1.043,1.043,0,0,1,12.1,19.252Z" transform="translate(1.175 0.626)"/><path class="a" d="M18.148,13.209H7.1A1.043,1.043,0,0,1,6,12.1,1.043,1.043,0,0,1,7.1,11H18.148a1.043,1.043,0,0,1,1.1,1.1A1.043,1.043,0,0,1,18.148,13.209Z" transform="translate(0.654 1.148)"/></svg>