<svg xmlns="http://www.w3.org/2000/svg" width="234.075" height="26.263" viewBox="0 0 234.075 26.263"><defs><style>.a{fill:#bbb;}.b{fill:#fff;}</style></defs><g transform="translate(-224 -73.01)"><g transform="translate(-468 -359)"><path class="a" d="M3.185-24.675H18.06v1.855H5.355v9.345H17.36v1.89H5.355V0H3.185ZM28.56.245A7.7,7.7,0,0,1,24.447-.84,7.284,7.284,0,0,1,21.7-3.92a10.438,10.438,0,0,1-.98-4.655,10.438,10.438,0,0,1,.98-4.655,7.284,7.284,0,0,1,2.747-3.08A7.7,7.7,0,0,1,28.56-17.4a7.726,7.726,0,0,1,4.095,1.085A7.135,7.135,0,0,1,35.4-13.23a10.6,10.6,0,0,1,.963,4.655A10.6,10.6,0,0,1,35.4-3.92,7.135,7.135,0,0,1,32.655-.84,7.726,7.726,0,0,1,28.56.245Zm-.035-1.89A5.091,5.091,0,0,0,32.69-3.43a7.907,7.907,0,0,0,1.47-5.145A7.941,7.941,0,0,0,32.673-13.7,5,5,0,0,0,28.56-15.54,4.989,4.989,0,0,0,24.43-13.7a8.008,8.008,0,0,0-1.47,5.127A8.043,8.043,0,0,0,24.395-3.43,4.99,4.99,0,0,0,28.525-1.645ZM49.77-15.54l-1.5.14a5.7,5.7,0,0,0-4.008,1.785A5.583,5.583,0,0,0,43.015-9.94V0H40.88V-16.975h2.1V-14a5.255,5.255,0,0,1,2.188-2.362,8.683,8.683,0,0,1,3.517-.963l.91-.07ZM66.5-16.975V0H64.4V-3.045A5.622,5.622,0,0,1,62.107-.6a6.748,6.748,0,0,1-3.377.84A5.843,5.843,0,0,1,54.2-1.418a7.053,7.053,0,0,1-1.522-4.918v-10.64H54.81v10.5a5.568,5.568,0,0,0,1,3.658A3.892,3.892,0,0,0,58.94-1.645,5.193,5.193,0,0,0,62.878-3.2,5.755,5.755,0,0,0,64.365-7.35v-9.625Zm23.94-.42q5.635,0,5.635,6.58V0H93.94V-10.675a5.937,5.937,0,0,0-.91-3.692,3.5,3.5,0,0,0-2.9-1.137,4.571,4.571,0,0,0-3.622,1.54A6.1,6.1,0,0,0,85.155-9.8V0H83.02V-10.675a5.937,5.937,0,0,0-.91-3.692,3.5,3.5,0,0,0-2.9-1.137,4.57,4.57,0,0,0-3.622,1.54A6.1,6.1,0,0,0,74.235-9.8V0H72.1V-16.975h2.1v2.8a5.323,5.323,0,0,1,2.118-2.4,6.144,6.144,0,0,1,3.2-.823q4.1,0,5.215,3.36a5.526,5.526,0,0,1,2.24-2.468A6.663,6.663,0,0,1,90.44-17.4Z" transform="translate(830 457)"/></g><path class="b" d="M2.66-24.675H19.18v3.57H7.07v6.79H18.48v3.535H7.07v7.21H19.18V0H2.66ZM34.4.315a12.536,12.536,0,0,1-6.352-1.558A10.394,10.394,0,0,1,23.888-5.67a14.618,14.618,0,0,1-1.453-6.685,14.509,14.509,0,0,1,1.453-6.668,10.417,10.417,0,0,1,4.165-4.41A12.536,12.536,0,0,1,34.4-24.99a14.124,14.124,0,0,1,4.69.77,10.4,10.4,0,0,1,3.71,2.17L41.3-18.76A12.363,12.363,0,0,0,37.975-20.7a9.949,9.949,0,0,0-3.5-.613A6.8,6.8,0,0,0,28.963-19q-1.943,2.31-1.943,6.65,0,4.375,1.943,6.685a6.8,6.8,0,0,0,5.512,2.31,9.949,9.949,0,0,0,3.5-.612A12.363,12.363,0,0,0,41.3-5.915l1.505,3.29A10.4,10.4,0,0,1,39.1-.455,14.124,14.124,0,0,1,34.4.315Zm23.065,0a12.19,12.19,0,0,1-6.248-1.54,10.3,10.3,0,0,1-4.077-4.41,14.85,14.85,0,0,1-1.435-6.72,14.892,14.892,0,0,1,1.417-6.7A10.183,10.183,0,0,1,51.2-23.45a12.286,12.286,0,0,1,6.265-1.54,12.19,12.19,0,0,1,6.247,1.54,10.214,10.214,0,0,1,4.06,4.393,14.892,14.892,0,0,1,1.418,6.7,14.85,14.85,0,0,1-1.435,6.72,10.3,10.3,0,0,1-4.078,4.41A12.118,12.118,0,0,1,57.47.315Zm0-3.6a6.457,6.457,0,0,0,5.3-2.345q1.908-2.345,1.908-6.72t-1.908-6.7a6.477,6.477,0,0,0-5.3-2.328,6.517,6.517,0,0,0-5.338,2.328q-1.908,2.327-1.908,6.7t1.908,6.72A6.5,6.5,0,0,0,57.47-3.29ZM84.945.315a12.536,12.536,0,0,1-6.353-1.558A10.394,10.394,0,0,1,74.427-5.67a14.618,14.618,0,0,1-1.452-6.685,14.509,14.509,0,0,1,1.452-6.668,10.417,10.417,0,0,1,4.165-4.41,12.536,12.536,0,0,1,6.353-1.558,14.124,14.124,0,0,1,4.69.77,10.4,10.4,0,0,1,3.71,2.17L91.84-18.76A12.363,12.363,0,0,0,88.515-20.7a9.949,9.949,0,0,0-3.5-.613A6.8,6.8,0,0,0,79.5-19q-1.943,2.31-1.943,6.65,0,4.375,1.943,6.685a6.8,6.8,0,0,0,5.512,2.31,9.949,9.949,0,0,0,3.5-.612A12.363,12.363,0,0,0,91.84-5.915l1.505,3.29a10.4,10.4,0,0,1-3.71,2.17A14.124,14.124,0,0,1,84.945.315Z" transform="translate(266 98)"/><g transform="translate(224 73.09)"><path class="b" d="M341.832,73.41" transform="translate(-315.359 -72.188)"/><path class="b" d="M80.334,65.718h5a2.182,2.182,0,0,1,.673.106,2.485,2.485,0,0,1,1.654,2.394,2.418,2.418,0,0,1-2.328,2.5H77.823l0,0a.019.019,0,0,1,0,0H75.476a2.692,2.692,0,0,0-.682.087c-.025.032-.05.063-.077.093l-.024-.065a2.865,2.865,0,0,0-1.414.978,3.2,3.2,0,0,0-.677,1.826q.008.331.031.657h0a3.184,3.184,0,0,0,.646,1.512,2.866,2.866,0,0,0,1.414.977l.024-.065c.026.031.052.061.076.093a2.7,2.7,0,0,0,.682.087H85.682a7.755,7.755,0,0,0,6.532-4.442,8.811,8.811,0,0,0,.9-3.905,8.294,8.294,0,0,0-5.64-8.036q-.155-.038-.311-.071a11.385,11.385,0,0,0-2.073-.245c-.1,0-.2,0-.3,0h-17.1C60.957,60.2,55.5,66.057,55.5,73.288a13.962,13.962,0,0,0,.621,4.134h0A12.307,12.307,0,0,0,67.688,86.38h17.1A11.822,11.822,0,0,0,93.965,81.9H67.688a7.827,7.827,0,0,1-7.533-8.092,8.053,8.053,0,0,1,5.263-7.717h0a7.053,7.053,0,0,1,2.269-.374H80.334c-.006-.11-.011-.22-.011-.331" transform="translate(-55.5 -60.196)"/><path class="b" d="M99.107,162.669" transform="translate(-95.075 -153.195)"/></g></g></svg>